<?xml version="1.0" encoding="utf-8"?>
<!-- Generator: Adobe Illustrator 16.0.0, SVG Export Plug-In . SVG Version: 6.00 Build 0)  -->
<!DOCTYPE svg PUBLIC "-//W3C//DTD SVG 1.1//EN" "http://www.w3.org/Graphics/SVG/1.1/DTD/svg11.dtd" [
	<!ENTITY ns_extend "http://ns.adobe.com/Extensibility/1.0/">
	<!ENTITY ns_ai "http://ns.adobe.com/AdobeIllustrator/10.0/">
	<!ENTITY ns_graphs "http://ns.adobe.com/Graphs/1.0/">
	<!ENTITY ns_vars "http://ns.adobe.com/Variables/1.0/">
	<!ENTITY ns_imrep "http://ns.adobe.com/ImageReplacement/1.0/">
	<!ENTITY ns_sfw "http://ns.adobe.com/SaveForWeb/1.0/">
	<!ENTITY ns_custom "http://ns.adobe.com/GenericCustomNamespace/1.0/">
	<!ENTITY ns_adobe_xpath "http://ns.adobe.com/XPath/1.0/">
]>
<svg version="1.1" id="Layer_1" xmlns:x="&ns_extend;" xmlns:i="&ns_ai;" xmlns:graph="&ns_graphs;"
	 xmlns="http://www.w3.org/2000/svg" xmlns:xlink="http://www.w3.org/1999/xlink" x="0px" y="0px" width="144.964px"
	 height="34.396px" viewBox="0 0 144.964 34.396" enable-background="new 0 0 144.964 34.396" xml:space="preserve">
<metadata>
	<sfw  xmlns="&ns_sfw;">
		<slices></slices>
		<sliceSourceBounds  width="142.483" height="32.13" y="-46.063" x="18.755" bottomLeftOrigin="true"></sliceSourceBounds>
	</sfw>
</metadata>
<g>
	<g>
		<path fill-rule="evenodd" clip-rule="evenodd" fill="#F8EEE6" d="M103.404,31.406c-0.313-0.037-0.575-0.057-0.831-0.103
			c-0.438-0.077-0.868-0.195-1.314-0.236c-0.133-0.013-0.31,0.159-0.463,0.268c-0.386,0.274-0.599-0.125-0.891-0.208
			c-0.407-0.117-0.809-0.25-1.215-0.365c-0.069-0.021-0.153,0.017-0.294,0.037c0.101,0.101,0.152,0.154,0.238,0.236
			c-0.273,0.072-0.583,0.427-0.614-0.198c0-0.024-0.033-0.03-0.051-0.042c-0.174-0.11-0.349-0.159-0.484,0.186
			c-0.614-0.255-1.2-0.414-1.915-0.086c-0.317,0.146-0.642-0.11-0.966-0.173c-0.159-0.032-0.339,0.005-0.481-0.068
			C93.588,30.384,93,30.455,92.4,30.507c-0.517,0.045-1.045,0.046-1.485-0.326c-0.198-0.166-0.51-0.072-0.763-0.125
			c-0.143-0.032-0.272-0.125-0.453-0.211c0.03,0.177,0.048,0.285,0.086,0.506c-0.161-0.117-0.263-0.189-0.391-0.281
			c-0.055,0.087-0.128,0.206-0.128,0.205c-0.386-0.016-0.704-0.033-1.024-0.039c-0.397-0.006-0.797,0-1.225-0.003
			c-0.111,0.261-0.111,0.261,0.132,0.371c-0.017,0.042-0.033,0.084-0.049,0.123c-0.189-0.128-0.379-0.256-0.649-0.439
			c0.08,0.172,0.11,0.239,0.151,0.327c-0.12,0.023-0.225,0.043-0.331,0.065c0.023-0.039,0.045-0.076,0.07-0.112
			c-0.114-0.221-0.205-0.48-0.349-0.643c-0.059-0.065-0.232,0.1-0.35,0.121c-0.192,0.041-0.381,0.052-0.662,0.084
			c-0.152,0.2-0.403,0.181-0.686-0.208c-0.281,0.31-0.521,0.384-0.678-0.028c-0.029-0.074-0.106-0.114-0.17-0.121
			c-0.243-0.022-0.49-0.027-0.751-0.039c0.005,0.092,0.013,0.198,0.025,0.392c-0.228-0.03-0.434-0.166-0.625-0.058
			c-0.378,0.217-0.558-0.029-0.708-0.322c-0.108-0.04-0.332,0.662-0.288-0.032c0.002-0.045-0.161-0.051-0.25-0.064
			c-0.049-0.009-0.104-0.007-0.157,0.011c-0.198,0.072-0.416,0.233-0.59,0.207c-0.25-0.034-0.469-0.2-0.697-0.325
			c-0.047-0.026-0.074-0.108-0.152-0.229c-0.036,0.247-0.056,0.39-0.079,0.559c-0.435,0.002-0.872,0.003-1.309,0.005
			c-0.01,0.042-0.017,0.085-0.026,0.126c0.066,0.049,0.131,0.095,0.208,0.151c-0.285-0.016-0.643,0.247-0.775-0.238
			c-0.165-0.078-0.343-0.14-0.501-0.248c-0.146-0.099-0.25-0.15-0.458,0.051c-0.143,0.138-0.362,0.045-0.535,0.003
			c-0.1-0.022-0.173-0.141-0.295-0.25c-0.035,0.229-0.059,0.402-0.091,0.609c-0.136-0.17-0.165-0.716-0.451-0.208
			c-0.145-0.039-0.286-0.077-0.428-0.114c-0.013,0.042-0.024,0.085-0.037,0.13c0.032,0.027,0.064,0.055,0.098,0.083
			c-0.016,0.037-0.031,0.07-0.047,0.106c-0.171-0.149-0.344-0.296-0.515-0.445c-0.048-0.043-0.103-0.154-0.136-0.131
			c-0.217,0.157-0.406,0.225-0.548-0.016c-0.009-0.021-0.046-0.03-0.06-0.014c-0.492,0.554-0.849,0.113-1.269,0.148
			c-0.195,0.018-0.349,0.03-0.516-0.073c-0.126-0.073-0.34-0.031-0.37,0.383c-0.435-0.118-0.864-0.233-1.293-0.349
			c-0.013,0.037-0.027,0.071-0.04,0.11c0.033,0.056,0.068,0.115,0.124,0.21c-0.081-0.002-0.152,0.028-0.176-0.013
			c-0.107-0.178-0.201-0.377-0.3-0.569c-0.173-0.014-0.401-0.032-0.654-0.053c-0.008,0.071-0.02,0.194-0.04,0.379
			c-0.315-0.17-0.608-0.72-0.979,0.218c-0.227-0.224-0.384-0.586-0.772-0.107c-0.082,0.102-0.31-0.136-0.481-0.223
			c-0.02,0.118-0.037,0.209-0.052,0.302c-0.062-0.029-0.153-0.024-0.178-0.092c-0.179-0.49-0.318-0.514-0.697-0.283
			c-0.183,0.111-0.379,0.021-0.571,0.075c-0.208,0.058-0.418,0.167-0.626,0.275c-0.21,0.109-0.354,0.095-0.337-0.348
			c-0.335,0.082-0.671,0.167-1.009,0.235c-0.061,0.01-0.126-0.042-0.17-0.101c-0.19-0.263-0.389-0.15-0.598,0.201
			c-0.194-0.523-0.966-0.524-1.24-0.112c-0.172,0.008-0.288,0.008-0.403,0.019c-0.46,0.049-0.922,0.104-1.381,0.153
			c-0.295,0.031-0.591,0.066-0.884,0.079c-0.289,0.011-0.612,0.1-0.855-0.029c-0.676-0.362-1.479,0.125-2.19,0.012
			c-0.438-0.068-0.901-0.036-1.356-0.019c-0.564,0.021-1.134,0.092-1.696,0.108c-0.326,0.011-0.639-0.062-0.964-0.059
			c-0.284,0.002-0.579,0.08-0.863,0.09c-0.799,0.029-1.594,0.052-2.388,0.051c-0.375-0.001-0.737-0.083-1.113-0.086
			c-0.24-0.003-0.491,0.065-0.739,0.112c-0.173,0.031-0.374,0.189-0.448-0.145c-0.012-0.048-0.153-0.051-0.183-0.004
			c-0.199,0.332-0.417-0.139-0.609,0.289c-0.008,0.018-0.088,0.002-0.12-0.032c-0.304-0.31-0.699-0.251-1.083-0.222
			c-0.203,0.015-0.385-0.072-0.639,0.277c-0.172,0.239-0.514,0.268-0.639-0.192c-0.078,0.122-0.149,0.234-0.27,0.422
			c0.027-0.173,0.042-0.26,0.057-0.361c-0.522-0.049-1.04-0.147-1.575-0.128c-0.457,0.013-0.954,0.258-1.397,0.224
			c-0.729-0.055-1.504,0.183-2.207-0.077c-0.417-0.153-0.938,0.037-1.41,0.068c-0.842,0.058-1.687,0.135-2.522,0.164
			c-0.523,0.02-1.03-0.066-1.552-0.06c-0.72,0.01-1.44,0.021-2.171,0.106c-0.631,0.071-1.283,0.299-1.911,0.352
			c-0.679,0.056-1.335-0.044-2.011-0.017c-0.758,0.035-1.529,0.15-2.29,0.207c-0.792,0.057-1.582,0.094-2.371,0.133
			c-0.589,0.029-1.176,0.037-1.766,0.074c-0.999,0.062-2,0.139-3,0.214c-0.631,0.044-1.261,0.099-1.891,0.144
			c-0.053,0.002-0.125,0.002-0.15-0.049c-0.276-0.58-0.714-0.344-1.173-0.22c-0.479,0.129-1.042,0.234-1.39-0.048
			c-0.559-0.459-1.241-0.161-1.826-0.341c-0.603-0.186-1.301-0.087-1.772-0.714c-0.236-0.313-0.295-0.753-0.174-1.339
			c0.125-0.607,0.188-1.22,0.307-1.83c0.123-0.628,0.257-1.264,0.429-1.887c0.148-0.537,0.382-1.051,0.521-1.589
			c0.098-0.379,0.318-0.653,0.381-1.086c0.047-0.344,0.318-0.704,0.52-1.116c-0.11-0.03-0.208-0.084-0.317-0.082
			c-0.738,0.021-1.475,0.049-2.216,0.086c-0.931,0.045-1.866,0.118-2.794,0.148c-0.361,0.009-0.702-0.175-1.063-0.07
			c-0.543,0.159-0.825-0.288-1.211-0.546c-0.348-0.233-0.508-0.408-0.385-1.146c0.05-0.302-0.007-0.654,0.114-1.016
			c0.11-0.329,0.216-0.66,0.321-0.985c0.015-0.001-0.031,0-0.061-0.001c0.291-0.91,0.578-1.816,0.91-2.859
			c-0.44-0.063-0.793-0.113-1.147-0.161C1.39,14.62,1.126,14.455,1.25,13.49c0.096-0.747,0.249-1.497,0.379-2.247
			c0.041-0.224,0.08-0.447,0.134-0.671c0.046-0.192,0.104-0.385,0.174-0.569c0.215-0.568,0.444-1.129,0.659-1.698
			c0.11-0.289,0.199-0.589,0.298-0.885C2.882,7.422,2.813,7.437,2.787,7.442C2.9,7.107,3.012,6.759,3.139,6.419
			c0.06-0.158,0.228-0.373,0.212-0.437c-0.09-0.358,0.075-0.597,0.241-0.846c0.192-0.289,0.391-0.569,0.585-0.853
			c0.02,0.033,0.039,0.067,0.059,0.101c0.008-0.163,0.016-0.325,0.022-0.455C4.382,3.891,4.532,3.908,4.57,3.823
			c0.344-0.727,0.792-0.607,1.11-0.586c0.253,0.019,0.534-0.226,0.767-0.054c0.184,0.138,0.408,0.217,0.634,0.215
			c0.534,0.002,1.078-0.051,1.62-0.098c0.728-0.061,1.456-0.117,2.187-0.204c0.49-0.058,0.991-0.195,1.48-0.238
			c0.853-0.073,1.695-0.073,2.548-0.155c0.7-0.066,1.413-0.236,2.113-0.304c0.659-0.064,1.308-0.051,1.961-0.078
			c0.249-0.009,0.499-0.018,0.748-0.04c1.317-0.104,2.64-0.232,3.953-0.309c0.91-0.055,1.805-0.023,2.712-0.059
			c0.342-0.014,0.702-0.141,1.046-0.167c0.282-0.021,0.549,0.052,0.829,0.045c0.36-0.009,0.729-0.064,1.09-0.084
			c0.671-0.033,1.342-0.058,2.013-0.087c0.963-0.042,1.926-0.089,2.888-0.121c0.586-0.02,1.163,0.016,1.75-0.016
			c1.162-0.062,2.333-0.188,3.49-0.221c0.811-0.021,1.6,0.098,2.407,0.105c0.465,0.002,0.953-0.121,1.423-0.135
			c0.537-0.016,1.064,0.033,1.598,0.041c0.458,0.003,0.919-0.005,1.379-0.021c0.816-0.027,1.636-0.082,2.447-0.089
			c0.506-0.005,0.996,0.092,1.505,0.079c0.797-0.022,1.609-0.115,2.408-0.142c0.486-0.016,0.958,0.052,1.442,0.052
			c0.407-0.002,0.828-0.083,1.231-0.074c1.069,0.029,2.131,0.104,3.199,0.131c0.457,0.011,0.929-0.063,1.392-0.077
			c0.353-0.007,0.698,0.023,1.049,0.023c0.4,0,0.802-0.019,1.204-0.024c0.492-0.003,0.986-0.011,1.477-0.003
			c0.293,0.004,0.581,0.045,0.875,0.059c0.847,0.042,1.687,0.128,2.548,0.088c0.275-0.011,0.499,0.101,0.752,0.134
			c0.159,0.021,0.334-0.022,0.504-0.042c0.272-0.037,0.548-0.092,0.818-0.115c0.376-0.037,0.754-0.07,1.122-0.065
			c0.642,0.01,1.28,0.052,1.92,0.077c1.141,0.043,2.286,0.076,3.424,0.132c0.182,0.009,0.34,0.126,0.52,0.162
			c0.111,0.022,0.245-0.04,0.357-0.017c0.115,0.023,0.216,0.104,0.343,0.17c0.326-0.371,1.294-0.42,1.533-0.042
			c0.095-0.078,0.203-0.228,0.28-0.222c0.429,0.038,0.845,0.136,1.273,0.17c0.215,0.018,0.45-0.075,0.669-0.08
			c0.393-0.006,0.781,0.015,1.171,0.028c0.372,0.013,0.746,0.018,1.115,0.05c0.412,0.036,0.814,0.115,1.227,0.146
			c0.195,0.016,0.409-0.066,0.604-0.051c0.177,0.013,0.339,0.099,0.508,0.149c0.036,0.011,0.086,0.019,0.119-0.013
			c0.403-0.372,0.717-0.156,1.058-0.078c0.431,0.099,0.868,0.341,1.312,0.183c0.917-0.327,1.694,0.061,2.563-0.056
			C90.37,1.885,90.489,1.911,90.518,2c0.17,0.531,0.543,0.249,0.856,0.219c0.292-0.028,0.587-0.063,0.878-0.078
			c0.329-0.015,0.661-0.032,0.983-0.011c0.202,0.013,0.393,0.097,0.651,0.167c0.235-0.377,0.507-0.259,0.793-0.081
			c0.141,0.09,0.332,0.047,0.493,0.092c0.149,0.045,0.283,0.156,0.436,0.186c0.141,0.029,0.334,0.201,0.368-0.199
			c0.341,0.008,0.673,0.016,1.004,0.021c0.087,0.003,0.178-0.012,0.262-0.002c0.288,0.04,0.583,0.06,0.86,0.14
			c0.158,0.046,0.273,0.253,0.432,0.287c0.25,0.057,0.517,0.047,0.784,0.025c0.063-0.007,0.146-0.182,0.133-0.165
			c0.248-0.054,0.418-0.131,0.571-0.116c0.425,0.038,0.838,0.129,1.262,0.168c0.198,0.021,0.412-0.034,0.617-0.045
			c0.06-0.004,0.141-0.021,0.168,0.029c0.143,0.254,0.276,0.39,0.579,0.137c0.131-0.111,0.321,0.196,0.497,0.159
			c0.487-0.104,0.925-0.104,1.326,0.209c0.191,0.152,0.528-0.057,0.781-0.022c0.428,0.059,0.835,0.207,1.261,0.272
			c0.238,0.035,0.506-0.06,0.743-0.017c0.409,0.071,0.803,0.206,1.257,0.324c0.403-0.446,0.804-0.173,1.222-0.152
			c0.236,0.012,0.449,0.228,0.682,0.152c0.399-0.125,0.668,0.399,1.1,0.027c0.02-0.015,0.046-0.002,0.066,0.01
			c0.674,0.439,1.538-0.037,2.249,0.244c0.208,0.084,0.44,0.079,0.675,0.118c-0.181,0.57,0.156,0.369,0.291,0.465
			c0.015,0.013,0.128-0.204,0.195-0.314c0-0.072,0.002-0.144,0.004-0.215c0.361,0.13,0.713,0.283,1.081,0.379
			c0.155,0.04,0.349-0.064,0.52-0.067c0.409-0.01,0.822-0.035,1.213,0.026c0.142,0.022,0.232,0.276,0.358,0.441
			c0.134-0.279,0.302-0.215,0.529-0.254c0.337-0.055,0.565,0.255,0.945,0.088c0.306-0.132,0.614,0.208,0.928,0.312
			c0.331,0.109,0.671,0.212,1.02,0.266c0.072,0.011,0.196-0.202,0.219-0.228c0.287-0.016,0.518-0.055,0.732-0.03
			c0.134,0.018,0.244,0.14,0.37,0.204c0.149,0.074,0.296,0.144,0.45,0.202c0.267,0.095,0.536,0.167,0.8,0.27
			c0.069,0.028,0.118,0.123,0.234,0.25c-0.023-0.272-0.035-0.42-0.044-0.511c0.275,0.134,0.542,0.262,0.862,0.417
			c0.195-0.283,0.362-0.035,0.541,0.135c0.187,0.18,0.373,0.365,0.62,0.503c-0.035-0.155-0.068-0.311-0.119-0.554
			c0.206,0.055,0.392,0.105,0.636,0.169c0.032,0.331,0.189,0.61,0.505,0.609c0.068,0,0.155-0.113,0.323-0.243
			c0.153,0.106,0.361,0.327,0.608,0.397c0.163,0.047,0.384-0.125,0.57-0.194c0.077,0.049,0.159,0.111,0.25,0.155
			c0.07,0.034,0.15,0.047,0.225,0.066c0.08,0.022,0.176,0.107,0.232,0.052c0.152-0.149,0.281-0.438,0.307,0.05
			c0.008,0.083,0.385-0.035,0.59-0.064c0.043-0.005,0.101-0.065,0.128-0.045c0.492,0.357,1.08,0.372,1.639,0.478
			c0.064,0.011,0.094,0.141,0.151,0.195c0.056,0.052,0.168,0.127,0.178,0.108c0.248-0.492,0.424-0.195,0.629-0.147
			c0.174,0.039,0.366,0.014,0.54,0.056c0.09,0.024,0.157,0.135,0.233,0.206c-0.091,0.091-0.184,0.183-0.279,0.272
			c-0.029,0.028-0.061,0.048-0.095,0.179c0.174-0.049,0.351-0.098,0.525-0.146c-0.016,0.037-0.031,0.073-0.046,0.111
			c0.192,0.097,0.376,0.236,0.582,0.285c0.338,0.083,0.697,0.093,1.042,0.164c0.358,0.073,0.75-0.056,1.082,0.235
			c0.212,0.188,0.598-0.007,0.899,0.01c0.178,0.011,0.354,0.221,0.513,0.126c0.269-0.162,0.37,0.054,0.546,0.137
			c0.186,0.087,0.455-0.094,0.661-0.05c0.604,0.129,1.193,0.312,1.792,0.471c0.541,0.146,1.085,0.284,1.625,0.432
			c0.069,0.02,0.13,0.081,0.271,0.173c-0.579,0.314-1-0.152-1.478,0.295c-0.008,0.055-0.018,0.111-0.025,0.166
			c0.213,0.037,0.424,0.165,0.643,0.092c0.362-0.121,0.306,0.197,0.256,0.584c0.161,0.021,0.318,0.044,0.474,0.065
			c0.065-0.155,0.12-0.288,0.195-0.466c0.024,0.549-0.071,0.729-0.387,0.756c-0.009,0.167-0.021,0.329-0.031,0.475
			c-0.549-0.016-1.092-0.01-1.625-0.053c-0.252-0.02-0.483-0.153-0.733-0.188c-0.084-0.01-0.201,0.129-0.304,0.261
			c0.533,0.408,1.193,0.483,1.511,1.266c-0.021,0.061-0.045,0.121-0.068,0.181c-0.127,0.031-0.255,0.063-0.467,0.112
			c0.211,0.129,0.358,0.221,0.508,0.312c-0.219,0.358-0.684,0.319-1.002-0.101c0.099-0.069,0.179-0.125,0.258-0.183
			c0.008-0.047,0.016-0.097,0.024-0.145c-0.291-0.022-0.601-0.2-0.871-0.024c-0.248,0.166-0.453,0.708-0.68,1.085
			c-0.076-0.099-0.157-0.208-0.238-0.318c-0.025,0.032-0.048,0.064-0.073,0.095c0.025,0.124,0.048,0.249,0.095,0.499
			c-0.225-0.137-0.384-0.233-0.583-0.353c-0.041,0.377-0.076,0.7-0.111,1.019c-0.817-0.061-1.607-0.116-2.394-0.174
			c-0.018,0.071-0.035,0.14-0.05,0.211c0.438,0.117,0.877,0.235,1.31,0.351c0.048,0.143,0.077,0.366,0.168,0.47
			c0.317,0.362,0.699,0.509,1.123,0.632c0.458,0.128,0.943,0.06,1.391,0.176c0.12,0.032,0.221,0.141,0.332,0.214
			c-0.016,0.06-0.034,0.119-0.052,0.178c-0.165,0.002-0.331-0.019-0.501,0.015c-0.082,0.014-0.175,0.127-0.262,0.197
			c0.061,0.046,0.117,0.119,0.185,0.136c0.66,0.161,1.313,0.329,1.977,0.467c0.6,0.126,1.206,0.21,1.806,0.325
			c0.097,0.019,0.178,0.097,0.27,0.148c-0.017,0.061-0.035,0.122-0.055,0.182c-1.009-0.089-2.021-0.181-3.099-0.276
			c0.027,0.417,0.056,0.809,0.085,1.226c-0.17,0.017-0.415,0.04-0.684,0.067c0.016,0.097,0.029,0.19,0.066,0.425
			c-1.12-0.03-2.192-0.058-3.266-0.085c-0.01,0.051-0.021,0.102-0.033,0.154c0.216,0.352,0.432,0.708,0.647,1.06
			c-0.008,0.035-0.014,0.067-0.023,0.102c-0.205-0.027-0.418-0.02-0.61-0.091c-0.298-0.108-0.396,0.104-0.405,0.601
			c-0.546-0.038-1.081-0.091-1.622-0.101c-0.158-0.002-0.339,0.125-0.511,0.182c-0.382,0.12-0.756,0.236-1.035-0.154
			c-0.081-0.114-0.287-0.043-0.436-0.02c-0.153,0.021-0.355,0.187-0.459,0.111c-0.208-0.146-0.386-0.147-0.64,0.054
			c-0.167,0.132-0.362,0.09-0.546,0.156c-0.11,0.038-0.223,0.123-0.325,0.212c-0.042,0.032-0.068,0.134-0.101,0.207
			c0.049,0.025,0.113,0.102,0.148,0.069c0.367-0.333,0.604-0.095,0.871,0.146c-0.313,0.026-0.603,0.078-0.877,0.06
			c-0.097-0.006-0.149-0.216-0.246-0.273c-0.104-0.062-0.239-0.111-0.36-0.067c-0.184,0.066-0.376,0.296-0.55,0.319
			c-0.306,0.047-0.604-0.007-0.926-0.02c-0.021,0.187-0.033,0.291-0.044,0.402c0.074-0.077,0.141-0.146,0.165-0.169
			c0.037,0.184,0.069,0.336,0.114,0.558c-0.025,0.043-0.093,0.157-0.161,0.274c0.004,0.05,0.006,0.101,0.01,0.15
			c0.265-0.091,0.53-0.184,0.821-0.285c0.021,0.052,0.065,0.175,0.112,0.298c0.056-0.073,0.112-0.146,0.229-0.294
			c0.19,0.179,0.41,0.43,0.663,0.605c0.106,0.073,0.298,0.067,0.417-0.039c0.463-0.412,0.686-0.316,0.783,0.357
			c0.023,0.146,0.159,0.229,0.26,0.287c0.027,0.015,0.131-0.192,0.261-0.392c0.099,0.113,0.232,0.322,0.404,0.447
			c0.197,0.143,0.428,0.211,0.643,0.312c0.264,0.122,0.527,0.246,0.844,0.396c-0.209,0.309-0.325,0.478-0.498,0.735
			c0.273,0.006,0.482,0.01,0.72,0.017c-0.003-0.396,0.063-0.792,0.421-0.822c0.25-0.021,0.503,0.344,0.462,0.561
			c-0.118,0.01-0.232,0.018-0.351,0.028c-0.016,0.072-0.031,0.145-0.047,0.217c0.281,0.168,0.56,0.336,0.839,0.504
			c-0.023,0.068-0.046,0.135-0.07,0.203c-0.056-0.004-0.116,0.003-0.168-0.016c-0.077-0.033-0.147-0.085-0.223-0.128
			c-0.054,0.194-0.155,0.41-0.151,0.577c0.008,0.209,0.488,0.158,0.606-0.033c0.066-0.102,0.144-0.179,0.216-0.27
			c-0.008,0.176-0.016,0.348-0.024,0.48c0.975,0.261,1.979,0.531,2.989,0.801c-0.025,0.091-0.047,0.183-0.068,0.274
			c-0.563-0.108-1.121-0.229-1.689-0.321c-0.56-0.092-1.125-0.154-1.687-0.228c-0.021,0.078-0.045,0.157-0.068,0.232
			c0.208,0.104,0.406,0.278,0.633,0.294c0.311,0.023,0.426,0.281,0.477,0.696c0.014,0.109,0.079,0.225,0.145,0.247
			c0.397,0.126,0.802,0.225,1.205,0.333c-0.016,0.064-0.033,0.13-0.048,0.196c-0.875-0.159-1.751-0.319-2.626-0.478
			c-0.021,0.051-0.042,0.102-0.065,0.151c0.178,0.192,0.354,0.387,0.532,0.58c-0.017,0.057-0.034,0.112-0.054,0.169
			c-0.222,0.007-0.451,0.046-0.666,0.014c-0.512-0.076-1.011-0.199-1.524-0.272c-0.108-0.015-0.249,0.104-0.375,0.162
			c-0.004,0.06-0.005,0.122-0.007,0.181c0.117,0.023,0.237,0.047,0.377,0.072c-0.025,0.08-0.058,0.193-0.062,0.193
			c-0.444-0.073-0.888-0.154-1.306-0.363c0.097-0.04,0.193-0.081,0.292-0.123c0.009-0.046,0.019-0.093,0.029-0.141
			c-0.303-0.08-0.603-0.162-0.926-0.248c0.114,0.174,0.214,0.326,0.312,0.479c-0.011,0.036-0.022,0.071-0.036,0.106
			c-0.194-0.036-0.386-0.071-0.582-0.107c0.008-0.044,0.012-0.088,0.018-0.132c-0.153,0.187-0.306,0.374-0.484,0.592
			c0.287,0.075,0.537,0.143,0.798,0.213c-0.028,0.087-0.056,0.168-0.039,0.117c-0.188,0.043-0.315,0.061-0.442,0.107
			c-0.134,0.047-0.268,0.119-0.445,0.2c0.006,0.023,0.037,0.165,0.085,0.374c-0.204-0.055-0.38-0.103-0.527-0.141
			c0.058-0.082,0.153-0.207,0.246-0.333c-0.019-0.057-0.037-0.114-0.054-0.169c-0.159,0.143-0.317,0.296-0.479,0.428
			c-0.085,0.07-0.188,0.157-0.265,0.149c-0.585-0.062-1.173-0.105-1.741-0.239c-0.266-0.061-0.469-0.321-0.814-0.029
			c-0.117,0.098-0.285-0.075-0.432-0.102c-0.48-0.09-0.964-0.168-1.447-0.259c-0.461-0.089-0.915-0.208-1.381-0.284
			c-0.674-0.114-1.356-0.208-2.038-0.291c-0.269-0.033-0.548-0.014-0.821-0.018c-0.013,0.045-0.023,0.09-0.034,0.136
			c0.07,0.028,0.135,0.072,0.207,0.088c0.527,0.108,1.057,0.202,1.581,0.322c0.101,0.024,0.335-0.125,0.221,0.292
			c0.12-0.007,0.24-0.021,0.358-0.02c0.087,0.001,0.178,0.002,0.258,0.036c0.079,0.034,0.145,0.115,0.225,0.16
			c0.204,0.119,0.415,0.226,0.707,0.383c-0.185,0.14-0.253,0.191-0.358,0.269c0.079,0.06,0.142,0.106,0.204,0.153
			c-0.004,0.039-0.008,0.08-0.012,0.12c-0.171,0.026-0.351,0.089-0.514,0.07c-0.62-0.072-1.241-0.151-1.852-0.277
			c-0.186-0.037-0.333-0.232-0.524-0.378c-0.095,0.183-0.213,0.26-0.423,0.152c-0.285-0.146-0.646-0.053-0.963-0.122
			c-0.354-0.075-0.689-0.233-1.04-0.322c-0.092-0.024-0.221,0.11-0.32,0.099c-0.844-0.102-1.685-0.209-2.523-0.335
			c-0.61-0.093-1.208-0.225-1.817-0.315c-0.703-0.105-1.412-0.174-2.117-0.267c-0.45-0.06-0.893-0.143-1.346-0.196
			c-0.843-0.102-1.71-0.105-2.526-0.312c-0.63-0.158-1.284-0.131-1.93-0.178c-0.948-0.069-1.874-0.24-2.815-0.339
			c-0.644-0.067-1.298-0.075-1.945-0.124c-0.17-0.015-0.328-0.091-0.495-0.117c-0.041-0.007-0.102,0.082-0.261,0.222
			c0.417,0.063,0.743,0.116,1.068,0.165c0.347,0.05,0.694,0.11,1.042,0.146c0.544,0.058,1.099,0.072,1.636,0.161
			c0.366,0.059,0.705,0.234,1.062,0.329c0.12,0.029,0.264-0.025,0.397-0.052c0.68-0.143,1.292,0.01,1.868,0.316
			c0.046,0.026,0.125-0.047,0.184-0.052c0.086-0.002,0.169,0.015,0.255,0.024c-0.013,0.082-0.025,0.165-0.037,0.248
			c-0.331,0.035-0.663,0.081-0.992,0.105c-0.354,0.024-0.708,0.045-1.056,0.034c-0.13-0.004-0.233-0.155-0.363-0.16
			c-0.62-0.026-1.245-0.019-1.864-0.044c-0.101-0.004-0.219-0.071-0.266-0.185C103.656,31.117,103.515,31.158,103.404,31.406z
			 M96.265,29.768c0.069,0.061,0.129,0.142,0.204,0.181c0.262,0.134,0.529,0.257,0.796,0.38c0.038,0.017,0.083,0.011,0.125,0
			c0.313-0.09,0.627-0.183,1.015-0.298c-0.152-0.099-0.252-0.225-0.376-0.235c-0.444-0.034-0.898-0.029-1.348-0.035
			c-0.135-0.003-0.273,0.01-0.412,0.014c-0.44-0.181-0.913-0.184-1.386-0.186c-0.016,0.083-0.029,0.164-0.043,0.245
			C95.316,29.811,95.791,29.79,96.265,29.768z M139.743,10.135c0.037,0.073,0.063,0.199,0.114,0.208
			c0.42,0.075,0.845,0.132,1.269,0.178c0.128,0.013,0.267-0.036,0.401-0.056c0.009-0.057,0.017-0.114,0.028-0.169
			C141.08,9.747,140.38,10.144,139.743,10.135z M113.566,30.125c-0.01,0.057-0.02,0.111-0.027,0.164
			c0.529,0.141,1.06,0.286,1.571,0.422c-0.006-0.603,0.377,0.102,0.47-0.368c-0.244-0.064-0.488-0.13-0.796-0.214
			C114.427,30.131,113.996,30.128,113.566,30.125z M98.614,29.907c-0.011,0.07-0.023,0.144-0.033,0.215
			c0.025,0.019,0.05,0.047,0.079,0.053c0.596,0.104,1.189,0.222,1.792,0.291c0.117,0.017,0.274-0.152,0.415-0.234
			c-0.006-0.036-0.011-0.067-0.017-0.103C100.104,30.055,99.359,29.981,98.614,29.907z M88.718,29.193
			c0.186,0.133,0.252,0.645,0.618,0.214c0.037-0.044,0.106-0.004,0.161-0.002c0.316,0.012,0.632,0.027,0.948,0.04
			c0.013-0.071,0.026-0.14,0.038-0.211C89.922,29.09,89.331,29.097,88.718,29.193z M119.043,31.601
			c0.01-0.028,0.018-0.058,0.026-0.084c-0.093-0.197-0.182-0.393-0.315-0.678c-0.232-0.033-0.553-0.08-0.87-0.122
			c-0.018,0.067-0.033,0.137-0.048,0.205c0.142,0.026,0.289,0.035,0.422,0.083c0.116,0.04,0.223,0.112,0.325,0.191
			C118.741,31.321,118.891,31.464,119.043,31.601z M92.542,29.327c0.32,0.414,0.976,0.469,1.398,0.137
			C93.433,29.414,92.987,29.37,92.542,29.327z M131.108,30.506c-0.73-0.367-0.779-0.372-1.02-0.095
			C130.629,30.822,130.9,30.849,131.108,30.506z M138.305,11.727c-0.001,0.058-0.005,0.114-0.007,0.172
			c0.191,0.051,0.379,0.101,0.567,0.152c0.029-0.076,0.056-0.152,0.083-0.229c-0.103-0.083-0.196-0.211-0.312-0.234
			C138.542,11.568,138.416,11.677,138.305,11.727z M119.822,30.99c-0.275-0.034-0.55-0.069-0.824-0.106
			c-0.015,0.066-0.029,0.131-0.042,0.196C119.243,31.058,119.431,31.527,119.822,30.99z M85.967,28.929
			c-0.011,0.062-0.022,0.122-0.035,0.186c0.33,0.005,0.659,0.009,0.988,0.016c0.016-0.089,0.029-0.176,0.044-0.263
			C86.632,28.888,86.3,28.908,85.967,28.929z M127.692,23.6c0.177,0.17,0.343,0.332,0.546,0.53
			C128.22,23.606,127.919,23.328,127.692,23.6z M135.193,29.439c0.331,0.414,0.383,0.383,0.482-0.202
			C135.504,29.31,135.348,29.374,135.193,29.439z M120.669,31.295c0.015-0.068,0.033-0.137,0.048-0.207
			c-0.219-0.011-0.438-0.021-0.657-0.031c-0.016,0.077-0.03,0.156-0.046,0.234C120.233,31.293,120.45,31.295,120.669,31.295z
			 M84.06,28.822c-0.011,0.082-0.021,0.163-0.034,0.242c0.249-0.029,0.498-0.061,0.745-0.093c0.008-0.056,0.015-0.116,0.022-0.173
			C84.549,28.806,84.305,28.814,84.06,28.822z M115.894,30.401c-0.011,0.049-0.022,0.098-0.034,0.149
			c0.234,0.162,0.488,0.21,0.794-0.034C116.4,30.479,116.147,30.44,115.894,30.401z M117.614,30.875
			c0.015-0.069,0.033-0.139,0.048-0.21c-0.242-0.039-0.485-0.08-0.727-0.12c-0.008,0.047-0.017,0.097-0.025,0.144
			C117.146,30.75,117.38,30.813,117.614,30.875z M141.98,11.342c-0.002-0.152,0.029-0.418-0.012-0.43
			c-0.114-0.035-0.261,0.03-0.394,0.059c-0.003,0.044-0.007,0.089-0.011,0.134C141.678,11.17,141.796,11.236,141.98,11.342z
			 M138.602,13.678c-0.029,0.648,0.046,0.771,0.401,0.566C138.862,14.044,138.745,13.878,138.602,13.678z"/>
		<path fill-rule="evenodd" clip-rule="evenodd" fill="#F8EEE6" d="M113.473,32.283c0.455-0.285,0.813-0.136,1.174-0.017
			c0.041,0.015,0.093,0.112,0.081,0.152c-0.023,0.085-0.103,0.23-0.131,0.227c-0.366-0.055-0.729-0.127-1.091-0.206
			C113.486,32.434,113.486,32.355,113.473,32.283z"/>
		<path fill-rule="evenodd" clip-rule="evenodd" fill="#F8EEE6" d="M110.391,32.036c0.085-0.124,0.167-0.306,0.213-0.302
			c0.277,0.014,0.546,0.057,0.808,0.13c0.048,0.013,0.052,0.197,0.078,0.302c-0.083,0.031-0.174,0.103-0.246,0.089
			C110.978,32.203,110.718,32.123,110.391,32.036z"/>
		<path fill-rule="evenodd" clip-rule="evenodd" fill="#F8EEE6" d="M139.601,29.202c0.612,0.164,1.224,0.327,1.836,0.493
			c-0.002,0.014-0.004,0.029-0.007,0.043c-0.624-0.112-1.248-0.226-1.87-0.338C139.574,29.335,139.59,29.268,139.601,29.202z"/>
		<path fill-rule="evenodd" clip-rule="evenodd" fill="#F8EEE6" d="M132.179,32.24c-0.107,0.078-0.161,0.118-0.254,0.186
			c0.054,0.038,0.091,0.056,0.12,0.089c0.031,0.029,0.054,0.074,0.099,0.143c-0.066,0.06-0.12,0.135-0.138,0.121
			c-0.116-0.083-0.224-0.186-0.273-0.387c-0.147,0.053-0.292,0.104-0.457,0.163C131.626,31.961,131.626,31.961,132.179,32.24z"/>
		<path fill-rule="evenodd" clip-rule="evenodd" fill="#F8EEE6" d="M109.554,31.873c-0.248,0.013-0.438,0.021-0.678,0.036
			C109.237,31.31,109.237,31.31,109.554,31.873z"/>
		<path fill-rule="evenodd" clip-rule="evenodd" fill="#F8EEE6" d="M140.153,13.748c0.126,0.165,0.233,0.306,0.335,0.44
			C139.987,14.373,139.954,14.333,140.153,13.748z"/>
	</g>
</g>
</svg>
